<svg width="150" height="52" viewBox="0 0 150 52" fill="none" xmlns="http://www.w3.org/2000/svg">
<g clip-path="url(#clip0_1774_148)">
<g filter="url(#filter0_d_1774_148)">
<path d="M24.3526 29.1037C24.3526 32.7449 25.3373 35.6909 27.3069 37.9418C29.293 40.1761 31.9493 41.2933 35.276 41.2933C38.6027 41.2933 41.2509 40.1761 43.2204 37.9418C45.2065 35.6909 46.1995 32.7449 46.1995 29.1037V28.3093C46.1995 24.7012 45.2065 21.78 43.2204 19.5456C41.2509 17.2947 38.6027 16.1693 35.276 16.1693C31.9659 16.1693 29.3178 17.2947 27.3317 19.5456C25.3456 21.78 24.3526 24.7012 24.3526 28.3093V29.1037ZM27.8034 28.3341C27.8034 25.6529 28.4323 23.4433 29.6902 21.7055C30.9646 19.9677 32.8183 19.0988 35.2512 19.0988C37.7173 19.0988 39.5792 19.9677 40.8371 21.7055C42.1115 23.4433 42.7487 25.6529 42.7487 28.3341V29.0789C42.7487 31.7601 42.1115 33.9779 40.8371 35.7323C39.5792 37.4866 37.7173 38.3638 35.2512 38.3638C32.8183 38.3638 30.9646 37.4866 29.6902 35.7323C28.4323 33.9779 27.8034 31.7684 27.8034 29.1037V28.3341ZM51.0654 40.6975H54.4418V23.5675C55.0211 22.3427 55.8403 21.3414 56.8996 20.5635C57.9754 19.7691 59.1588 19.3719 60.4497 19.3719C60.88 19.3719 61.2855 19.3967 61.6662 19.4463C62.0469 19.4794 62.3861 19.5291 62.6841 19.5953V16.4424C62.5186 16.3762 62.2372 16.3182 61.84 16.2686C61.4428 16.2024 61.0869 16.1693 60.7725 16.1693C59.2663 16.1693 57.9837 16.5417 56.9244 17.2865C55.8652 18.0147 55.0045 18.9167 54.3425 19.9925H54.268L54.1935 16.7403H51.0654V40.6975ZM66.0108 40.6975H69.3871V23.6171C70.0491 22.3262 70.8932 21.2752 71.9194 20.4642C72.9621 19.6367 74.1785 19.2229 75.5688 19.2229C77.1742 19.2229 78.4155 19.6449 79.2927 20.489C80.1699 21.3331 80.6085 22.8144 80.6085 24.9329V40.6975H84.0097V23.6171C84.6552 22.3262 85.491 21.2752 86.5171 20.4642C87.5433 19.6367 88.7597 19.2229 90.1666 19.2229C91.772 19.2229 93.0133 19.6449 93.8905 20.489C94.7677 21.3331 95.2063 22.8144 95.2063 24.9329V40.6975H98.5826V24.9826C98.5826 21.8379 97.904 19.5953 96.5469 18.2547C95.2063 16.9141 93.394 16.2438 91.11 16.2438C89.4383 16.2438 87.9488 16.5996 86.6413 17.3113C85.3337 18.0064 84.2331 19.0574 83.3394 20.4642H83.2649C82.7684 19.0408 81.9408 17.9816 80.7823 17.2865C79.6237 16.5913 78.2252 16.2438 76.5867 16.2438C75.0475 16.2438 73.6655 16.5913 72.4407 17.2865C71.216 17.9816 70.165 18.9333 69.2878 20.1415H69.2133L69.1388 16.7403H66.0108V40.6975ZM104.913 40.6975H108.29V16.7403H104.913V40.6975ZM104.367 8.37389C104.367 9.00282 104.557 9.53244 104.938 9.96276C105.335 10.3931 105.89 10.6082 106.601 10.6082C107.313 10.6082 107.859 10.3931 108.24 9.96276C108.637 9.53244 108.836 9.00282 108.836 8.37389C108.836 7.74496 108.645 7.22362 108.265 6.80985C107.884 6.37953 107.33 6.16437 106.601 6.16437C105.89 6.16437 105.335 6.37953 104.938 6.80985C104.557 7.24017 104.367 7.76151 104.367 8.37389ZM116.035 40.6975H119.412V18.1554V17.783V12.1226C119.412 10.0703 119.809 8.58078 120.603 7.65394C121.414 6.72709 122.548 6.26367 124.005 6.26367C124.435 6.26367 124.865 6.29677 125.295 6.36298C125.726 6.42918 126.098 6.49538 126.413 6.56159L126.686 3.68176C126.239 3.5659 125.759 3.47487 125.246 3.40867C124.749 3.32592 124.261 3.28454 123.781 3.28454C121.381 3.28454 119.486 4.0376 118.096 5.54372C116.722 7.04983 116.035 9.24281 116.035 12.1226V40.6975ZM111.84 19.5705H124.7V16.7403H118.071H117.351H111.84V19.5705ZM126.462 51.0251C126.893 51.1741 127.34 51.29 127.803 51.3727C128.266 51.472 128.813 51.5217 129.441 51.5217C131.212 51.5217 132.636 50.9093 133.712 49.6845C134.804 48.4598 135.805 46.6226 136.716 44.1731L146.994 16.7403H143.667L137.51 33.6965C137.278 34.342 137.08 34.913 136.914 35.4095C136.749 35.8895 136.608 36.3612 136.492 36.8246H136.343C136.227 36.3612 136.087 35.8895 135.921 35.4095C135.756 34.913 135.557 34.3503 135.325 33.7213L129.119 16.7403H125.668L134.779 40.772C133.819 43.6683 132.934 45.6875 132.123 46.8295C131.312 47.9715 130.343 48.5343 129.218 48.5177C128.738 48.5177 128.258 48.4846 127.778 48.4184C127.315 48.3522 126.876 48.2446 126.462 48.0957V51.0251Z" fill="#3D3D3D"/>
</g>
<g filter="url(#filter1_d_1774_148)">
<path d="M3.26067 50.9386C2.52325 50.9386 2.0097 50.8596 1.72 50.7016C1.40397 50.5699 1.04843 50.2802 0.653389 49.8325C0.100331 49.1214 -0.176199 48.5815 -0.176199 48.2128C-0.176199 47.9495 -0.00501392 47.8178 0.337356 47.8178C0.548045 47.8178 0.929919 47.8968 1.48298 48.0548C2.48375 48.3445 3.35284 48.4894 4.09025 48.4894C5.40706 48.4894 6.47368 48.226 7.2901 47.6993C8.10652 47.1726 8.76492 46.2508 9.26531 44.934C9.79203 43.6172 10.2397 41.7078 10.6084 39.2059L13.4923 20.0068H11.6356C11.0298 20.0068 10.5163 20.099 10.0949 20.2834C9.67352 20.4677 9.41015 20.5599 9.30481 20.5599C9.06778 20.5599 8.94927 20.4414 8.94927 20.2044C8.94927 19.941 9.01511 19.6776 9.14679 19.4143C9.46283 18.6769 9.93688 18.058 10.5689 17.5576C11.2273 17.0309 11.9121 16.7675 12.6232 16.7675H14.0058L14.0848 16.0564C15.0329 10.4205 16.7843 6.31205 19.3389 3.73111C20.2606 2.75667 21.1429 2.0851 21.9857 1.71639C22.8548 1.34769 23.8029 1.08433 24.83 0.92631C25.6464 0.794629 26.1731 0.702453 26.4101 0.649781C26.6735 0.570772 26.8447 0.531268 26.9237 0.531268C27.1607 0.531268 27.2792 0.676116 27.2792 0.965813C27.2792 1.20284 27.1739 1.49254 26.9632 1.83491C26.7788 2.15094 26.5418 2.45381 26.2521 2.7435C25.9888 3.00686 25.7122 3.17805 25.4225 3.25706C25.1328 3.30973 24.7641 3.33607 24.3164 3.33607C23.263 3.33607 22.3807 3.74428 21.6696 4.5607C20.9322 5.37712 20.2738 6.70709 19.6944 8.55062C19.1414 10.3678 18.6015 12.8697 18.0747 16.0564L17.9562 16.7675H19.5759C20.366 16.7675 20.9849 16.6753 21.4326 16.491C21.8803 16.3066 22.1568 16.2144 22.2622 16.2144C22.5255 16.2144 22.6572 16.3461 22.6572 16.6095C22.6572 16.8202 22.6046 17.0704 22.4992 17.3601C22.2359 18.0185 21.7618 18.6242 21.0771 19.1773C20.4187 19.7303 19.7339 20.0068 19.0228 20.0068H17.4822L15.349 33.9913C14.4799 39.8116 13.0577 44.0912 11.0825 46.8302C9.13362 49.5692 6.52635 50.9386 3.26067 50.9386Z" fill="#3D3D3D"/>
</g>
</g>
<defs>
<filter id="filter0_d_1774_148" x="20.3804" y="2.49011" width="130.585" height="56.1815" filterUnits="userSpaceOnUse" color-interpolation-filters="sRGB">
<feFlood flood-opacity="0" result="BackgroundImageFix"/>
<feColorMatrix in="SourceAlpha" type="matrix" values="0 0 0 0 0 0 0 0 0 0 0 0 0 0 0 0 0 0 127 0" result="hardAlpha"/>
<feOffset dy="3.17774"/>
<feGaussianBlur stdDeviation="1.98609"/>
<feComposite in2="hardAlpha" operator="out"/>
<feColorMatrix type="matrix" values="0 0 0 0 0 0 0 0 0 0 0 0 0 0 0 0 0 0 0.27 0"/>
<feBlend mode="normal" in2="BackgroundImageFix" result="effect1_dropShadow_1774_148"/>
<feBlend mode="normal" in="SourceGraphic" in2="effect1_dropShadow_1774_148" result="shape"/>
</filter>
<filter id="filter1_d_1774_148" x="-4.14845" y="-0.263155" width="35.3999" height="58.3517" filterUnits="userSpaceOnUse" color-interpolation-filters="sRGB">
<feFlood flood-opacity="0" result="BackgroundImageFix"/>
<feColorMatrix in="SourceAlpha" type="matrix" values="0 0 0 0 0 0 0 0 0 0 0 0 0 0 0 0 0 0 127 0" result="hardAlpha"/>
<feOffset dy="3.17774"/>
<feGaussianBlur stdDeviation="1.98609"/>
<feComposite in2="hardAlpha" operator="out"/>
<feColorMatrix type="matrix" values="0 0 0 0 0 0 0 0 0 0 0 0 0 0 0 0 0 0 0.27 0"/>
<feBlend mode="normal" in2="BackgroundImageFix" result="effect1_dropShadow_1774_148"/>
<feBlend mode="normal" in="SourceGraphic" in2="effect1_dropShadow_1774_148" result="shape"/>
</filter>
<clipPath id="clip0_1774_148">
<rect width="150" height="51.6807" fill="white"/>
</clipPath>
</defs>
</svg>
